<?xml version="1.0" encoding="utf-8"?>
<!-- Generator: Adobe Illustrator 21.0.0, SVG Export Plug-In . SVG Version: 6.00 Build 0)  -->
<svg version="1.1" id="Layer_1" xmlns="http://www.w3.org/2000/svg" xmlns:xlink="http://www.w3.org/1999/xlink" x="0px" y="0px"
	 viewBox="0 0 512 512" style="enable-background:new 0 0 512 512;" xml:space="preserve">
<style type="text/css">
	.st0{fill:#FFFFFF;}
	<!-- 0A0A08 -->
</style>
<g>
	<path class="st0" d="M256,0C114.9,0,0,114.9,0,256s114.9,256,256,256s256-114.9,256-256S397.1,0,256,0z M256,42.7
		c118.1,0,213.3,95.3,213.3,213.3c0,107.3-78.7,195.4-181.6,210.8V318.2h60.8l9.5-61.7h-70.3v-33.7c0-25.6,8.4-48.4,32.4-48.4h38.5
		v-53.8c-6.8-0.9-21.1-2.9-48.1-2.9c-56.5,0-89.6,29.8-89.6,97.8v41h-58.1v61.7h58.1v148C119.7,449.5,42.7,362.1,42.7,256
		C42.7,137.9,137.9,42.7,256,42.7z"/>
</g>
</svg>
