<?xml version="1.0" encoding="utf-8"?>
<!-- Generator: Adobe Illustrator 24.1.1, SVG Export Plug-In . SVG Version: 6.00 Build 0)  -->
<svg version="1.1" id="Layer_1" xmlns="http://www.w3.org/2000/svg" xmlns:xlink="http://www.w3.org/1999/xlink" x="0px" y="0px"
	 viewBox="0 0 512 512" style="enable-background:new 0 0 512 512;" xml:space="preserve">
<style type="text/css">
	.st0{fill-rule:evenodd;clip-rule:evenodd;fill:#FFFFFF;}
</style>
<g>
	<path class="st0" d="M256.8,5.9C114.7,5.9,0,120.6,0,262.7c0,113,73.6,208.9,176.4,243.1c13.7,1.7,17.1-5.1,17.1-12v-44.5
		c-71.9,15.4-87.3-34.2-87.3-34.2c-12-29.1-29.1-37.7-29.1-37.7c-24-15.4,1.7-15.4,1.7-15.4c25.7,1.7,39.4,25.7,39.4,25.7
		c22.3,39.4,59.9,27.4,75.3,20.6c1.7-17.1,8.6-27.4,17.1-34.2c-56.5-6.8-116.4-29.1-116.4-126.7c0-27.4,10.3-51.4,25.7-68.5
		c-3.4-6.9-12-32.5,1.7-68.5c0,0,22.3-6.9,70.2,25.7c20.5-5.1,42.8-8.6,65.1-8.6s44.5,3.4,65.1,8.6c49.7-32.5,70.2-25.7,70.2-25.7
		c13.7,36,5.1,61.6,1.7,68.5c17.1,17.1,25.7,41.1,25.7,68.5c0,99.3-59.9,119.9-116.4,126.7c8.6,8.6,17.1,24,17.1,47.9v70.2
		c0,6.8,5.1,15.4,17.1,12C440.1,469.9,512,374,512,261C513.7,120.6,399,5.9,256.8,5.9z"/>
</g>
</svg>
