<?xml version="1.0" encoding="utf-8"?>
<!-- Generator: Adobe Illustrator 24.1.1, SVG Export Plug-In . SVG Version: 6.00 Build 0)  -->
<svg version="1.1" id="Layer_1" xmlns="http://www.w3.org/2000/svg" xmlns:xlink="http://www.w3.org/1999/xlink" x="0px" y="0px"
	 viewBox="0 0 512 512" style="enable-background:new 0 0 512 512;" xml:space="preserve">
<style type="text/css">
	.st0{fill:#FFFFFF;}
	<!-- 0A0A08 -->
</style>
<g>
	<path class="st0" d="M256,46.1c68.4,0,76.5,0.3,103.4,1.5c25,1.1,38.5,5.3,47.5,8.8c11.9,4.6,20.5,10.2,29.4,19.1
		c9,9,14.5,17.5,19.1,29.4c3.5,9,7.7,22.6,8.8,47.5c1.2,27,1.5,35.1,1.5,103.4c0,68.4-0.3,76.5-1.5,103.4c-1.1,25-5.3,38.5-8.8,47.5
		c-4.6,11.9-10.2,20.5-19.1,29.4c-9,9-17.5,14.5-29.4,19.1c-9,3.5-22.6,7.7-47.5,8.8c-27,1.2-35.1,1.5-103.4,1.5
		c-68.4,0-76.5-0.3-103.4-1.5c-25-1.1-38.5-5.3-47.5-8.8c-11.9-4.6-20.5-10.2-29.4-19.1c-9-9-14.5-17.5-19.1-29.4
		c-3.5-9-7.7-22.6-8.8-47.5c-1.2-27-1.5-35.1-1.5-103.4c0-68.4,0.3-76.5,1.5-103.4c1.1-25,5.3-38.5,8.8-47.5
		c4.6-11.9,10.2-20.5,19.1-29.4c9-9,17.5-14.5,29.4-19.1c9-3.5,22.6-7.7,47.5-8.8C179.5,46.4,187.6,46.1,256,46.1 M256,0
		c-69.5,0-78.2,0.3-105.5,1.5c-27.2,1.2-45.9,5.6-62.1,11.9C71.5,20,57.2,28.7,43,43S20,71.5,13.4,88.3
		c-6.3,16.3-10.7,34.9-11.9,62.1C0.3,177.8,0,186.5,0,256s0.3,78.2,1.5,105.5c1.2,27.2,5.6,45.9,11.9,62.1
		C20,440.5,28.7,454.8,43,469s28.5,23,45.3,29.5c16.3,6.3,34.9,10.7,62.1,11.9c27.3,1.2,36,1.5,105.5,1.5c69.5,0,78.2-0.3,105.5-1.5
		c27.2-1.2,45.9-5.6,62.1-11.9c16.8-6.5,31.1-15.3,45.3-29.5s23-28.5,29.5-45.3c6.3-16.3,10.7-34.9,11.9-62.1
		c1.2-27.3,1.5-36,1.5-105.5s-0.3-78.2-1.5-105.5c-1.2-27.2-5.6-45.9-11.9-62.1C492,71.5,483.3,57.2,469,43s-28.5-23-45.3-29.5
		c-16.3-6.3-34.9-10.7-62.1-11.9C334.2,0.3,325.5,0,256,0z M256,124.5c-72.6,0-131.5,58.9-131.5,131.5
		c0,72.6,58.9,131.5,131.5,131.5c72.6,0,131.5-58.9,131.5-131.5C387.5,183.4,328.6,124.5,256,124.5z M256,341.3
		c-47.1,0-85.3-38.2-85.3-85.3c0-47.1,38.2-85.3,85.3-85.3c47.1,0,85.3,38.2,85.3,85.3C341.3,303.1,303.1,341.3,256,341.3z
		 M423.4,119.3c0,17-13.8,30.7-30.7,30.7c-17,0-30.7-13.8-30.7-30.7c0-17,13.8-30.7,30.7-30.7C409.6,88.6,423.4,102.4,423.4,119.3z"
		/>
</g>
</svg>
