<?xml version="1.0" encoding="utf-8"?>
<!-- Generator: Adobe Illustrator 24.1.1, SVG Export Plug-In . SVG Version: 6.00 Build 0)  -->
<svg version="1.1" id="Layer_1" xmlns="http://www.w3.org/2000/svg" xmlns:xlink="http://www.w3.org/1999/xlink" x="0px" y="0px"
	 viewBox="0 0 512 512" style="enable-background:new 0 0 512 512;" xml:space="preserve">

<style type="text/css">
	.st0{fill:#FFFFFF;}
	<!-- 0A0A08 -->
</style>

<g>
	<path class="st0" d="M384,284.92v94.65h-54.85v-88.33c0-22.17-7.92-37.3-27.8-37.3c-15.15,0-24.2,10.2-28.15,20.07
		c-1.45,3.52-1.83,8.45-1.83,13.35v92.2h-54.9c0,0,0.75-149.55,0-165.05h54.9v23.38l-0.35,0.53h0.35v-0.5
		c7.3-11.28,20.3-27.3,49.45-27.3C356.92,210.63,384,234.25,384,284.92z M159.07,134.93c-18.77,0-31.07,12.35-31.07,28.52
		c0,15.88,11.95,28.55,30.35,28.55h0.35c19.15,0,31.05-12.7,31.05-28.55C189.4,147.27,177.85,134.93,159.07,134.93z M131.27,379.58
		h54.88V214.52h-54.88V379.58z"/>
	<path class="st0" d="M256,460.8c113.13,0,204.8-91.7,204.8-204.8S369.13,51.2,256,51.2C142.9,51.2,51.2,142.9,51.2,256S142.9,460.8,256,460.8z
		 M256,512C114.63,512,0,397.38,0,256C0,114.6,114.63,0,256,0c141.4,0,256,114.6,256,256C512,397.38,397.4,512,256,512z"/>
</g>
</svg>
