<?xml version="1.0" encoding="utf-8"?>
<!-- Generator: Adobe Illustrator 24.1.1, SVG Export Plug-In . SVG Version: 6.00 Build 0)  -->
<svg version="1.1" id="Layer_1" xmlns="http://www.w3.org/2000/svg" xmlns:xlink="http://www.w3.org/1999/xlink" x="0px" y="0px"
	 viewBox="0 0 512 512" style="enable-background:new 0 0 512 512;" xml:space="preserve">

<style type="text/css">
	.st0{fill:#FFFFFF;}
	<!-- 0A0A08 -->
</style>

<g>
	<path class="st0" d="M256,460.8c113.13,0,204.8-91.67,204.8-204.8c0-113.1-91.67-204.8-204.8-204.8C142.9,51.2,51.2,142.9,51.2,256
		C51.2,369.13,142.9,460.8,256,460.8z M256,512C114.63,512,0,397.4,0,256C0,114.63,114.63,0,256,0c141.4,0,256,114.63,256,256
		C512,397.4,397.4,512,256,512z"/>
	<path class="st0" d="M384,177.85c-9.4,4.1-19.52,6.92-30.15,8.15c10.85-6.4,19.15-16.55,23.1-28.6c-10.2,5.93-21.4,10.25-33.38,12.55
		c-10-10.47-23.85-16.38-38.33-16.35c-29.02,0-52.52,23.17-52.52,51.72c0,4.05,0.47,7.98,1.38,11.78
		c-42.08-2-81.35-21.6-108.25-54.03c-4.68,7.88-7.13,16.85-7.13,26c0,17.93,9.3,33.78,23.38,43.03c-8.33-0.25-16.48-2.48-23.8-6.48
		v0.65c0.18,24.78,17.8,46,42.15,50.68c-7.75,2.05-15.88,2.35-23.75,0.88c7.05,21.2,26.73,35.6,49.05,35.92
		c-18.68,14.4-41.63,22.17-65.23,22.1c-4.22,0-8.4-0.25-12.52-0.7c24.07,15.23,52,23.3,80.5,23.25
		c96.6,0,149.42-78.77,149.42-147.13l-0.17-6.72C368.05,197.32,376.95,188.27,384,177.85z"/>
</g>
</svg>
